:FULLY-SPECIFIED
:FORCE-ALL-JOINTS-BE-3DOF
:DEGREES
1937
root 5.46414 13.7615 28.1946 1029.5 63.6317 305.051
lfemur -62.269 12.7857 -9.89398
ltibia 67.5056 0 0
lfoot -5.38611 0.762616 0
ltoes -32.4782 0 0
rfemur -4.8347 -5.45702 18.9391
rtibia 61.2911 0 0
rfoot -26.0489 -30.2278 0
rtoes -27.0791 0 0
lowerback 13.1093 4.16255 4.74312
upperback -0.769948 6.7068 3.72306
thorax -8.10664 3.17916 0.0194051
lowerneck -0.507621 14.7695 6.96647
upperneck 5.1382 20.1095 -7.39297
head 3.39571 10.013 -2.72607
lclavicle 4.30539e-15 -2.5076e-14 0
lhumerus 67.2503 -26.0185 53.2871
lradius 47.599 0 0
lwrist -0.681218 0 0
lhand -15.025 35.0585 0
lfingers 7.12502 0 0
lthumb 11.1401 64.7314 0
rclavicle 4.30539e-15 -2.5076e-14 0
rhumerus -43.881 25.5214 -77.6129
rradius 94.8507 0 0
rwrist -39.8449 0 0
rhand -12.4872 -403.108 0
rfingers 7.12502 0 0
rthumb 13.5847 287.398 0
1938
root 5.3246 13.7751 28.2275 1026.09 63.5802 301.59
lfemur -62.3666 12.7177 -10.6806
ltibia 67.257 0 0
lfoot -5.53828 1.08248 0
ltoes -32.4226 0 0
rfemur -5.24581 -5.43547 19.2714
rtibia 61.3845 0 0
rfoot -26.2521 -30.3859 0
rtoes -27.0617 0 0
lowerback 13.1759 4.03725 4.79967
upperback -0.753019 6.56068 3.75367
thorax -8.12854 3.1079 0.0467462
lowerneck -0.542018 14.7146 6.92887
upperneck 5.04564 20.0308 -7.43862
head 3.36509 9.97311 -2.7414
lclavicle 5.59961e-15 -2.63548e-14 0
lhumerus 67.8812 -26.4717 52.2336
lradius 49.7113 0 0
lwrist -0.186246 0 0
lhand -15.1552 35.1926 0
lfingers 7.12502 0 0
lthumb 11.0145 64.8713 0
rclavicle 5.59961e-15 -2.63548e-14 0
rhumerus -43.626 26.1647 -77.5618
rradius 95.1377 0 0
rwrist -40.2506 0 0
rhand -12.2489 -403.036 0
rfingers 7.12502 0 0
rthumb 13.8141 287.489 0
1939
root 5.18506 13.7887 28.2605 1022.68 63.5287 298.128
lfemur -62.4642 12.6498 -11.4672
ltibia 67.0084 0 0
lfoot -5.69045 1.40235 0
ltoes -32.367 0 0
rfemur -5.65691 -5.41391 19.6037
rtibia 61.4779 0 0
rfoot -26.4554 -30.544 0
rtoes -27.0443 0 0
lowerback 13.2426 3.91194 4.85622
upperback -0.73609 6.41455 3.78427
thorax -8.15043 3.03663 0.0740873
lowerneck -0.576414 14.6596 6.89128
upperneck 4.95307 19.9521 -7.48428
head 3.33447 9.93325 -2.75673
lclavicle 6.89383e-15 -2.76335e-14 0
lhumerus 68.5121 -26.9249 51.18
lradius 51.8235 0 0
lwrist 0.308727 0 0
lhand -15.2854 35.3267 0
lfingers 7.12502 0 0
lthumb 10.8888 65.0112 0
rclavicle 6.89383e-15 -2.76335e-14 0
rhumerus -43.371 26.8079 -77.5107
rradius 95.4248 0 0
rwrist -40.6563 0 0
rhand -12.0106 -402.963 0
rfingers 7.12502 0 0
rthumb 14.0435 287.58 0
1940
root 5.04551 13.8023 28.2934 1019.28 63.4772 294.667
lfemur -62.5618 12.5818 -12.2538
ltibia 66.7598 0 0
lfoot -5.84262 1.72221 0
ltoes -32.3114 0 0
rfemur -6.06802 -5.39236 19.936
rtibia 61.5713 0 0
rfoot -26.6586 -30.702 0
rtoes -27.027 0 0
lowerback 13.3093 3.78664 4.91276
upperback -0.719162 6.26842 3.81488
thorax -8.17233 2.96537 0.101428
lowerneck -0.610811 14.6046 6.85368
upperneck 4.86051 19.8735 -7.52993
head 3.30385 9.89339 -2.77207
lclavicle 8.18806e-15 -2.89123e-14 0
lhumerus 69.1429 -27.378 50.1265
lradius 53.9358 0 0
lwrist 0.803699 0 0
lhand -15.4156 35.4608 0
lfingers 7.12502 0 0
lthumb 10.7632 65.1512 0
rclavicle 8.18806e-15 -2.89123e-14 0
rhumerus -43.116 27.4512 -77.4595
rradius 95.7119 0 0
rwrist -41.062 0 0
rhand -11.7723 -402.891 0
rfingers 7.12502 0 0
rthumb 14.273 287.671 0
